<svg xmlns="http://www.w3.org/2000/svg" xmlns:xlink="http://www.w3.org/1999/xlink" width="500" zoomAndPan="magnify" viewBox="0 0 375 374.999991" height="500" preserveAspectRatio="xMidYMid meet" version="1.0"><defs><g/><clipPath id="fe70d6d1ba"><path d="M 199 124.207031 L 209 124.207031 L 209 133 L 199 133 Z M 199 124.207031 " clip-rule="nonzero"/></clipPath><clipPath id="c363835685"><path d="M 193.921875 129 L 199 129 L 199 133.957031 L 193.921875 133.957031 Z M 193.921875 129 " clip-rule="nonzero"/></clipPath><clipPath id="a2351a416f"><path d="M 209 129 L 214.171875 129 L 214.171875 133.957031 L 209 133.957031 Z M 209 129 " clip-rule="nonzero"/></clipPath><clipPath id="660b5b7997"><path d="M 98 116.757812 L 277 116.757812 L 277 209.757812 L 98 209.757812 Z M 98 116.757812 " clip-rule="nonzero"/></clipPath></defs><g clip-path="url(#fe70d6d1ba)"><path fill="#050a30" d="M 208.28125 127.355469 L 205.503906 126.953125 C 205.378906 126.933594 205.273438 126.855469 205.21875 126.742188 L 203.976562 124.230469 L 202.734375 126.742188 C 202.679688 126.855469 202.570312 126.933594 202.445312 126.953125 L 199.671875 127.355469 L 201.679688 129.3125 C 201.769531 129.402344 201.8125 129.527344 201.789062 129.652344 L 201.316406 132.414062 L 203.796875 131.109375 C 203.910156 131.050781 204.042969 131.050781 204.15625 131.109375 L 206.636719 132.414062 L 206.160156 129.652344 C 206.140625 129.527344 206.183594 129.402344 206.273438 129.3125 Z M 208.28125 127.355469 " fill-opacity="1" fill-rule="nonzero"/></g><g clip-path="url(#c363835685)"><path fill="#050a30" d="M 198.515625 130.910156 L 197.128906 130.707031 C 197.003906 130.6875 196.898438 130.609375 196.839844 130.496094 L 196.222656 129.242188 L 195.601562 130.496094 C 195.546875 130.609375 195.4375 130.6875 195.3125 130.707031 L 193.925781 130.910156 L 194.929688 131.886719 C 195.019531 131.972656 195.0625 132.101562 195.039062 132.226562 L 194.804688 133.605469 L 196.042969 132.953125 C 196.15625 132.894531 196.289062 132.894531 196.398438 132.953125 L 197.640625 133.605469 L 197.402344 132.226562 C 197.382812 132.101562 197.421875 131.972656 197.511719 131.886719 Z M 198.515625 130.910156 " fill-opacity="1" fill-rule="nonzero"/></g><g clip-path="url(#a2351a416f)"><path fill="#050a30" d="M 213.023438 131.886719 L 214.023438 130.910156 L 212.640625 130.707031 C 212.515625 130.6875 212.40625 130.609375 212.351562 130.496094 L 211.730469 129.242188 L 211.109375 130.496094 C 211.054688 130.609375 210.945312 130.6875 210.820312 130.707031 L 209.4375 130.910156 L 210.4375 131.886719 C 210.53125 131.972656 210.570312 132.101562 210.550781 132.226562 L 210.3125 133.605469 L 211.550781 132.953125 C 211.664062 132.894531 211.796875 132.894531 211.910156 132.953125 L 213.148438 133.605469 L 212.910156 132.226562 C 212.890625 132.101562 212.929688 131.972656 213.023438 131.886719 Z M 213.023438 131.886719 " fill-opacity="1" fill-rule="nonzero"/></g><g clip-path="url(#660b5b7997)"><path fill="#ffffff" d="M 276.925781 201.769531 C 276.925781 201.769531 276.949219 199.539062 276.898438 195.382812 C 276.84375 191.226562 276.710938 185.144531 276.3125 177.457031 C 276.109375 173.617188 275.84375 169.367188 275.449219 164.769531 C 275.347656 163.621094 275.238281 162.445312 275.113281 161.261719 C 275.082031 160.964844 275.046875 160.660156 275.003906 160.378906 C 274.960938 160.0625 274.929688 159.75 274.90625 159.441406 L 274.777344 157.59375 C 274.675781 156.375 274.550781 155.121094 274.113281 154.039062 C 273.890625 153.503906 273.578125 153.039062 273.160156 152.785156 C 273.109375 152.753906 273.058594 152.726562 273 152.699219 C 272.949219 152.675781 272.925781 152.667969 272.851562 152.644531 C 272.726562 152.605469 272.574219 152.570312 272.425781 152.535156 C 272.117188 152.46875 271.800781 152.414062 271.476562 152.363281 C 268.882812 151.960938 266.148438 151.6875 263.355469 151.402344 C 260.554688 151.121094 257.671875 150.859375 254.71875 150.601562 L 245.636719 149.835938 L 235.632812 149.042969 L 227 134.972656 L 218.222656 120.589844 L 217.476562 119.367188 L 217.464844 119.371094 L 217.078125 119.371094 L 215.992188 119.375 L 211.617188 119.394531 L 202.742188 119.421875 L 193.710938 119.441406 L 191.613281 119.441406 L 191.117188 120.273438 L 188.742188 124.214844 L 173.355469 149.621094 L 159.355469 150.390625 L 146.480469 151.054688 C 138.066406 151.476562 130 151.855469 122.347656 152.160156 L 116.679688 152.367188 L 113.902344 152.4375 C 113.4375 152.445312 112.980469 152.453125 112.511719 152.449219 C 112.089844 152.445312 111.65625 152.46875 111.222656 152.5 C 109.480469 152.640625 107.75 152.9375 106.105469 153.359375 C 105.289062 153.574219 104.488281 153.832031 103.738281 154.148438 C 103 154.464844 102.28125 154.851562 101.792969 155.339844 C 101.667969 155.464844 101.570312 155.582031 101.480469 155.722656 C 101.386719 155.871094 101.296875 156.035156 101.21875 156.207031 C 101.054688 156.546875 100.921875 156.917969 100.800781 157.292969 C 100.558594 158.046875 100.378906 158.832031 100.222656 159.613281 C 99.914062 161.179688 99.707031 162.746094 99.539062 164.285156 C 99.207031 167.363281 99.03125 170.339844 98.898438 173.171875 C 98.648438 178.839844 98.601562 183.960938 98.59375 188.4375 C 98.59375 192.917969 98.648438 196.757812 98.710938 199.890625 C 98.839844 206.152344 98.992188 209.570312 98.988281 209.570312 L 98.570312 199.894531 C 98.445312 196.765625 98.304688 192.921875 98.195312 188.441406 C 98.09375 183.960938 98.003906 178.839844 98.105469 173.148438 C 98.164062 170.300781 98.261719 167.3125 98.515625 164.1875 C 98.648438 162.625 98.8125 161.03125 99.089844 159.402344 C 99.230469 158.589844 99.398438 157.769531 99.640625 156.9375 C 99.761719 156.523438 99.902344 156.105469 100.085938 155.691406 C 100.179688 155.480469 100.285156 155.269531 100.410156 155.0625 C 100.535156 154.847656 100.703125 154.632812 100.871094 154.453125 C 101.566406 153.738281 102.382812 153.300781 103.199219 152.921875 C 104.023438 152.546875 104.871094 152.257812 105.734375 152.007812 C 107.460938 151.515625 109.238281 151.167969 111.089844 150.972656 C 111.550781 150.925781 112.023438 150.890625 112.511719 150.886719 C 112.949219 150.878906 113.402344 150.863281 113.859375 150.84375 L 116.613281 150.710938 L 122.257812 150.382812 L 146.355469 148.832031 L 171.871094 147.167969 L 186.460938 122.839844 L 188.835938 118.902344 L 189.519531 117.769531 L 190.109375 116.789062 L 193.710938 116.789062 L 202.742188 116.808594 L 211.617188 116.835938 L 215.992188 116.851562 L 218.847656 116.863281 L 218.882812 116.863281 C 218.886719 116.867188 218.894531 116.882812 218.898438 116.890625 L 218.933594 116.949219 L 219.003906 117.0625 L 219.140625 117.292969 L 219.417969 117.746094 L 219.796875 118.382812 L 220.351562 119.308594 L 228.949219 133.796875 L 236.824219 147.132812 L 245.800781 148.027344 C 248.898438 148.34375 251.921875 148.664062 254.878906 148.992188 C 257.828125 149.320312 260.707031 149.648438 263.511719 150 C 266.316406 150.355469 269.03125 150.695312 271.683594 151.175781 C 272.019531 151.238281 272.347656 151.304688 272.6875 151.386719 C 272.855469 151.425781 273.023438 151.46875 273.210938 151.53125 C 273.296875 151.558594 273.421875 151.609375 273.519531 151.660156 C 273.609375 151.707031 273.699219 151.757812 273.785156 151.8125 C 274.480469 152.277344 274.882812 152.972656 275.132812 153.625 C 275.625 154.957031 275.703125 156.269531 275.777344 157.527344 L 275.855469 159.375 C 275.875 159.675781 275.890625 159.972656 275.925781 160.253906 C 275.964844 160.570312 275.988281 160.867188 276.011719 161.171875 C 276.113281 162.375 276.1875 163.554688 276.257812 164.707031 C 276.535156 169.332031 276.6875 173.585938 276.792969 177.4375 C 276.992188 185.140625 276.992188 191.226562 276.976562 195.382812 Z M 276.925781 201.769531 " fill-opacity="1" fill-rule="evenodd"/></g><path fill="#ffffff" d="M 160.960938 197.421875 C 160.964844 197.421875 160.976562 196.210938 161.050781 194.015625 C 161.128906 191.820312 161.28125 188.644531 161.714844 184.730469 C 162.15625 180.824219 162.871094 176.175781 164.191406 171.121094 C 164.851562 168.597656 165.664062 165.972656 166.695312 163.3125 C 167.730469 160.65625 168.980469 157.960938 170.566406 155.363281 C 171.359375 154.066406 172.21875 152.824219 173.160156 151.667969 C 174.109375 150.535156 175.007812 149.449219 175.882812 148.34375 C 177.625 146.144531 179.234375 143.960938 180.691406 141.832031 C 183.613281 137.574219 185.925781 133.523438 187.636719 130.007812 C 189.351562 126.488281 190.464844 123.507812 191.109375 121.414062 C 191.761719 119.320312 191.953125 118.113281 191.949219 118.117188 C 191.949219 118.113281 191.773438 119.316406 191.203125 121.441406 C 190.636719 123.5625 189.667969 126.601562 188.109375 130.222656 C 186.554688 133.839844 184.402344 138.03125 181.582031 142.421875 C 180.175781 144.617188 178.605469 146.863281 176.875 149.117188 C 176.019531 150.242188 175.09375 151.378906 174.179688 152.492188 C 173.292969 153.605469 172.46875 154.800781 171.699219 156.058594 C 170.164062 158.570312 168.925781 161.191406 167.871094 163.78125 C 166.816406 166.367188 165.953125 168.933594 165.222656 171.410156 C 163.769531 176.359375 162.851562 180.9375 162.230469 184.800781 C 161.617188 188.667969 161.308594 191.832031 161.144531 194.019531 C 160.984375 196.210938 160.960938 197.421875 160.960938 197.421875 Z M 160.960938 197.421875 " fill-opacity="1" fill-rule="evenodd"/><path fill="#ffffff" d="M 247.742188 196.398438 C 247.738281 196.398438 247.707031 195.199219 247.527344 193.039062 C 247.347656 190.878906 247.019531 187.757812 246.378906 183.9375 C 245.738281 180.125 244.792969 175.605469 243.316406 170.730469 C 242.574219 168.292969 241.703125 165.761719 240.636719 163.214844 C 239.566406 160.667969 238.316406 158.09375 236.765625 155.628906 C 235.992188 154.398438 235.164062 153.226562 234.265625 152.144531 C 233.34375 151.027344 232.453125 149.910156 231.605469 148.792969 C 229.90625 146.558594 228.359375 144.335938 226.976562 142.160156 C 224.203125 137.8125 222.089844 133.664062 220.5625 130.085938 C 219.03125 126.507812 218.078125 123.5 217.515625 121.402344 C 216.957031 119.304688 216.78125 118.117188 216.78125 118.117188 C 216.777344 118.117188 216.964844 119.304688 217.609375 121.375 C 218.25 123.445312 219.34375 126.394531 221.03125 129.871094 C 222.71875 133.351562 224.996094 137.359375 227.867188 141.574219 C 229.300781 143.683594 230.886719 145.84375 232.601562 148.023438 C 233.460938 149.113281 234.351562 150.207031 235.273438 151.304688 C 236.222656 152.433594 237.09375 153.648438 237.894531 154.921875 C 239.496094 157.472656 240.757812 160.125 241.804688 162.738281 C 242.851562 165.355469 243.675781 167.945312 244.351562 170.433594 C 245.691406 175.421875 246.433594 180.007812 246.898438 183.867188 C 247.351562 187.730469 247.53125 190.867188 247.625 193.035156 C 247.714844 195.203125 247.738281 196.402344 247.742188 196.398438 Z M 247.742188 196.398438 " fill-opacity="1" fill-rule="evenodd"/><path fill="#ffffff" d="M 247.886719 200.398438 C 247.886719 200.398438 247.890625 199.917969 247.84375 199.007812 C 247.796875 198.097656 247.6875 196.753906 247.417969 195.046875 C 247.140625 193.339844 246.699219 191.265625 245.945312 188.941406 C 245.199219 186.621094 244.140625 184.042969 242.664062 181.375 C 241.183594 178.710938 239.289062 175.957031 236.910156 173.320312 C 234.535156 170.6875 231.683594 168.167969 228.386719 165.996094 C 225.089844 163.824219 221.339844 162 217.265625 160.738281 C 213.191406 159.472656 208.789062 158.777344 204.273438 158.777344 C 199.753906 158.777344 195.351562 159.46875 191.277344 160.734375 C 187.203125 161.996094 183.453125 163.820312 180.15625 165.992188 C 176.855469 168.164062 174.003906 170.683594 171.632812 173.320312 C 169.253906 175.957031 167.355469 178.710938 165.878906 181.375 C 164.402344 184.042969 163.34375 186.617188 162.59375 188.941406 C 161.84375 191.265625 161.402344 193.335938 161.125 195.042969 C 160.851562 196.753906 160.75 198.097656 160.699219 199.007812 C 160.652344 199.917969 160.65625 200.398438 160.65625 200.398438 L 160.65625 199.003906 C 160.664062 198.089844 160.691406 196.742188 160.839844 195.007812 C 160.988281 193.273438 161.261719 191.152344 161.816406 188.726562 C 162.367188 186.300781 163.207031 183.570312 164.484375 180.679688 C 165.765625 177.796875 167.488281 174.75 169.777344 171.777344 C 172.058594 168.804688 174.898438 165.90625 178.3125 163.367188 C 181.71875 160.828125 185.699219 158.652344 190.105469 157.140625 C 194.503906 155.621094 199.328125 154.78125 204.273438 154.785156 C 209.21875 154.78125 214.046875 155.621094 218.445312 157.136719 C 222.851562 158.648438 226.832031 160.824219 230.238281 163.363281 C 233.652344 165.902344 236.496094 168.800781 238.777344 171.773438 C 241.0625 174.75 242.785156 177.792969 244.066406 180.679688 C 245.34375 183.570312 246.183594 186.300781 246.734375 188.726562 C 247.289062 191.152344 247.558594 193.273438 247.707031 195.007812 C 247.851562 196.742188 247.882812 198.089844 247.890625 199.003906 Z M 247.886719 200.398438 " fill-opacity="1" fill-rule="evenodd"/><path fill="#ffffff" d="M 237.453125 200.398438 C 237.453125 200.398438 237.457031 200.035156 237.417969 199.339844 C 237.375 198.648438 237.285156 197.628906 237.0625 196.332031 C 236.839844 195.035156 236.480469 193.464844 235.886719 191.707031 C 235.292969 189.953125 234.457031 188.011719 233.3125 186.011719 C 232.164062 184.011719 230.699219 181.949219 228.878906 179.984375 C 227.0625 178.019531 224.894531 176.152344 222.398438 174.542969 C 219.902344 172.933594 217.078125 171.585938 214.015625 170.65625 C 210.957031 169.722656 207.660156 169.210938 204.269531 169.210938 C 200.882812 169.210938 197.585938 169.71875 194.527344 170.652344 C 191.464844 171.582031 188.636719 172.925781 186.140625 174.539062 C 183.644531 176.144531 181.472656 178.015625 179.65625 179.980469 C 177.839844 181.945312 176.375 184.007812 175.226562 186.007812 C 174.082031 188.011719 173.246094 189.953125 172.65625 191.707031 C 172.058594 193.464844 171.703125 195.035156 171.480469 196.328125 C 171.257812 197.625 171.167969 198.648438 171.125 199.339844 C 171.082031 200.035156 171.085938 200.398438 171.085938 200.398438 L 171.082031 199.339844 C 171.085938 198.644531 171.097656 197.617188 171.195312 196.296875 C 171.292969 194.972656 171.480469 193.351562 171.878906 191.496094 C 172.273438 189.636719 172.886719 187.542969 173.832031 185.316406 C 174.785156 183.09375 176.074219 180.742188 177.804688 178.441406 C 179.527344 176.136719 181.691406 173.886719 184.300781 171.910156 C 186.902344 169.9375 189.957031 168.242188 193.347656 167.058594 C 196.734375 165.875 200.460938 165.214844 204.269531 165.214844 C 208.082031 165.214844 211.804688 165.871094 215.195312 167.054688 C 218.585938 168.234375 221.640625 169.933594 224.246094 171.90625 C 226.855469 173.882812 229.015625 176.136719 230.742188 178.4375 C 232.472656 180.742188 233.761719 183.09375 234.714844 185.316406 C 235.664062 187.542969 236.273438 189.636719 236.667969 191.496094 C 237.066406 193.355469 237.25 194.976562 237.347656 196.296875 C 237.445312 197.621094 237.457031 198.644531 237.460938 199.339844 Z M 237.453125 200.398438 " fill-opacity="1" fill-rule="evenodd"/><path fill="#ffffff" d="M 220.363281 200.398438 C 220.355469 200.402344 220.378906 199.679688 220.097656 198.433594 C 219.820312 197.195312 219.214844 195.429688 217.992188 193.597656 C 216.785156 191.769531 214.953125 189.90625 212.585938 188.539062 C 210.222656 187.160156 207.339844 186.300781 204.269531 186.300781 C 201.203125 186.296875 198.316406 187.15625 195.957031 188.53125 C 193.582031 189.902344 191.753906 191.769531 190.546875 193.597656 C 189.324219 195.425781 188.722656 197.195312 188.441406 198.433594 C 188.164062 199.679688 188.183594 200.402344 188.179688 200.398438 C 188.179688 200.398438 188.175781 200.222656 188.164062 199.882812 C 188.15625 199.546875 188.144531 199.046875 188.15625 198.398438 C 188.171875 197.75 188.21875 196.953125 188.359375 196.023438 C 188.503906 195.097656 188.742188 194.039062 189.152344 192.902344 C 189.558594 191.769531 190.144531 190.554688 190.957031 189.351562 C 191.769531 188.148438 192.816406 186.960938 194.109375 185.90625 C 195.402344 184.851562 196.941406 183.941406 198.671875 183.304688 C 200.398438 182.664062 202.3125 182.308594 204.269531 182.308594 C 206.230469 182.304688 208.144531 182.664062 209.871094 183.300781 C 211.601562 183.9375 213.140625 184.851562 214.433594 185.902344 C 215.726562 186.957031 216.773438 188.148438 217.585938 189.347656 C 218.398438 190.554688 218.984375 191.769531 219.390625 192.902344 C 219.800781 194.039062 220.039062 195.097656 220.183594 196.023438 C 220.324219 196.953125 220.371094 197.75 220.386719 198.398438 C 220.398438 199.046875 220.386719 199.546875 220.375 199.882812 C 220.367188 200.222656 220.363281 200.398438 220.363281 200.398438 Z M 220.363281 200.398438 " fill-opacity="1" fill-rule="evenodd"/><path fill="#ffffff" d="M 262.738281 197.964844 C 262.738281 197.964844 262.746094 197.722656 262.652344 197.300781 C 262.558594 196.882812 262.351562 196.285156 261.941406 195.664062 C 261.535156 195.046875 260.914062 194.414062 260.113281 193.949219 C 259.3125 193.484375 258.339844 193.191406 257.300781 193.191406 C 256.261719 193.191406 255.285156 193.480469 254.484375 193.949219 C 253.683594 194.414062 253.0625 195.046875 252.660156 195.664062 C 252.246094 196.285156 252.042969 196.882812 251.949219 197.300781 C 251.855469 197.722656 251.863281 197.964844 251.863281 197.964844 C 251.867188 197.964844 251.847656 197.726562 251.855469 197.289062 C 251.867188 196.851562 251.917969 196.203125 252.195312 195.433594 C 252.46875 194.671875 252.992188 193.785156 253.871094 193.074219 C 254.308594 192.71875 254.828125 192.410156 255.410156 192.195312 C 255.992188 191.980469 256.640625 191.859375 257.300781 191.859375 C 257.960938 191.859375 258.605469 191.980469 259.191406 192.195312 C 259.773438 192.410156 260.292969 192.71875 260.730469 193.074219 C 261.609375 193.785156 262.132812 194.671875 262.40625 195.433594 C 262.683594 196.203125 262.734375 196.851562 262.746094 197.289062 C 262.753906 197.726562 262.734375 197.964844 262.738281 197.964844 Z M 262.738281 197.964844 " fill-opacity="1" fill-rule="evenodd"/><path fill="#ffffff" d="M 265.285156 197.964844 C 265.28125 197.964844 265.292969 197.648438 265.1875 197.085938 C 265.085938 196.53125 264.859375 195.730469 264.378906 194.867188 C 263.898438 194.003906 263.164062 193.078125 262.15625 192.316406 C 261.15625 191.558594 259.890625 190.964844 258.480469 190.742188 C 258.132812 190.683594 257.777344 190.648438 257.433594 190.636719 L 256.328125 190.609375 C 255.59375 190.585938 254.886719 190.554688 254.214844 190.515625 C 252.867188 190.433594 251.65625 190.328125 250.636719 190.238281 C 249.621094 190.144531 248.796875 190.070312 248.226562 190.027344 C 247.65625 189.984375 247.34375 189.980469 247.34375 189.980469 C 247.34375 189.980469 247.65625 189.976562 248.226562 189.933594 C 248.796875 189.890625 249.621094 189.8125 250.636719 189.71875 C 251.65625 189.628906 252.867188 189.523438 254.214844 189.445312 C 254.886719 189.40625 255.59375 189.371094 256.328125 189.347656 C 256.699219 189.335938 257.054688 189.328125 257.453125 189.324219 C 257.863281 189.324219 258.277344 189.359375 258.695312 189.425781 C 260.363281 189.691406 261.828125 190.503906 262.855469 191.503906 C 263.898438 192.503906 264.519531 193.660156 264.855469 194.65625 C 265.191406 195.660156 265.261719 196.503906 265.28125 197.078125 C 265.300781 197.652344 265.28125 197.964844 265.285156 197.964844 Z M 265.285156 197.964844 " fill-opacity="1" fill-rule="evenodd"/><path fill="#ffffff" d="M 168.867188 148.105469 C 168.777344 148.105469 168.6875 147.613281 168.609375 146.730469 C 168.570312 146.289062 168.53125 145.746094 168.496094 145.121094 L 168.445312 144.113281 C 168.4375 144.050781 168.429688 143.988281 168.417969 143.9375 L 168.320312 143.929688 L 168.273438 143.925781 L 168.253906 143.925781 L 168.242188 143.921875 L 168.207031 143.917969 C 165.101562 143.429688 160.792969 142.914062 156.015625 142.894531 C 151.238281 142.863281 146.914062 143.3125 143.851562 143.886719 C 143.789062 143.898438 143.785156 143.898438 143.769531 143.902344 L 143.722656 143.90625 L 143.625 143.917969 C 143.613281 143.980469 143.605469 144.019531 143.597656 144.113281 L 143.546875 145.121094 C 143.511719 145.746094 143.472656 146.289062 143.433594 146.730469 C 143.355469 147.613281 143.265625 148.105469 143.175781 148.105469 C 143.082031 148.105469 142.996094 147.613281 142.914062 146.730469 C 142.875 146.289062 142.839844 145.746094 142.800781 145.121094 L 142.75 144.113281 C 142.75 143.855469 142.730469 143.519531 142.742188 143.222656 L 143.195312 143.089844 L 143.636719 142.972656 C 146.738281 142.140625 151.140625 141.53125 156.019531 141.5625 C 160.898438 141.585938 165.285156 142.261719 168.382812 142.996094 L 169.304688 143.203125 C 169.316406 143.507812 169.292969 143.824219 169.292969 144.113281 L 169.242188 145.121094 C 169.207031 145.75 169.167969 146.289062 169.128906 146.730469 C 169.050781 147.613281 168.960938 148.105469 168.867188 148.105469 Z M 168.867188 148.105469 " fill-opacity="1" fill-rule="evenodd"/><path fill="#ffffff" d="M 141.03125 148.640625 C 140.9375 148.640625 140.851562 148.339844 140.773438 147.800781 C 140.730469 147.527344 140.695312 147.199219 140.660156 146.8125 L 140.644531 146.667969 C 140.640625 146.621094 140.636719 146.554688 140.632812 146.546875 L 140.605469 146.433594 L 140.59375 146.382812 C 140.582031 146.375 140.550781 146.378906 140.53125 146.378906 L 140.410156 146.378906 L 138.886719 146.203125 C 138.328125 146.144531 137.730469 146.089844 137.105469 146.042969 C 135.847656 145.953125 134.464844 145.898438 133.015625 145.914062 C 131.566406 145.925781 130.1875 146.007812 128.9375 146.136719 C 128.3125 146.203125 127.722656 146.277344 127.171875 146.363281 L 126.96875 146.394531 C 126.910156 146.402344 126.816406 146.421875 126.8125 146.417969 L 126.714844 146.421875 C 126.691406 146.417969 126.691406 146.429688 126.6875 146.445312 L 126.679688 146.488281 L 126.667969 146.539062 C 126.664062 146.535156 126.664062 146.582031 126.660156 146.609375 L 126.65625 146.699219 C 126.535156 148.636719 126.371094 149.832031 126.183594 149.832031 C 126 149.832031 125.835938 148.636719 125.714844 146.699219 L 125.707031 146.609375 L 125.703125 146.496094 L 125.699219 146.171875 L 125.691406 145.832031 L 125.6875 145.660156 C 125.675781 145.621094 125.710938 145.621094 125.738281 145.613281 L 125.820312 145.589844 C 126.03125 145.523438 126.261719 145.453125 126.496094 145.394531 L 126.957031 145.277344 C 127.527344 145.140625 128.136719 145.023438 128.78125 144.921875 C 130.066406 144.71875 131.5 144.59375 133.003906 144.582031 C 134.503906 144.566406 135.9375 144.660156 137.226562 144.824219 C 137.871094 144.90625 138.480469 145.003906 139.046875 145.113281 C 139.332031 145.164062 139.605469 145.222656 139.867188 145.28125 L 140.644531 145.464844 L 141.21875 145.601562 L 141.351562 145.636719 L 141.421875 145.652344 C 141.4375 145.660156 141.476562 145.652344 141.464844 145.683594 L 141.453125 145.964844 L 141.429688 146.484375 C 141.425781 146.582031 141.421875 146.617188 141.417969 146.667969 L 141.40625 146.8125 C 141.367188 147.199219 141.332031 147.53125 141.292969 147.800781 C 141.210938 148.339844 141.121094 148.640625 141.03125 148.640625 Z M 141.03125 148.640625 " fill-opacity="1" fill-rule="evenodd"/><path fill="#ffffff" d="M 119.277344 150.542969 C 119.183594 150.542969 119.097656 150.351562 119.019531 150 C 118.996094 149.914062 118.980469 149.816406 118.960938 149.710938 L 118.933594 149.542969 L 118.917969 149.453125 C 118.914062 149.425781 118.910156 149.390625 118.90625 149.382812 C 118.886719 149.328125 118.871094 149.28125 118.851562 149.242188 L 118.839844 149.210938 C 118.828125 149.210938 118.808594 149.214844 118.796875 149.214844 L 118.710938 149.21875 C 118.679688 149.222656 118.667969 149.226562 118.628906 149.226562 L 118.382812 149.207031 L 117.859375 149.160156 C 117.5 149.132812 117.117188 149.105469 116.714844 149.082031 C 115.910156 149.035156 115.023438 149.003906 114.09375 149.015625 C 113.164062 149.023438 112.28125 149.070312 111.480469 149.140625 C 111.078125 149.175781 110.699219 149.214844 110.347656 149.261719 C 110.324219 149.265625 110.304688 149.269531 110.308594 149.265625 L 110.292969 149.265625 L 110.265625 149.261719 L 110.195312 149.253906 C 110.15625 149.265625 110.160156 149.3125 110.140625 149.355469 C 110.136719 149.371094 110.132812 149.359375 110.128906 149.40625 L 110.09375 149.734375 L 110.042969 150.132812 C 110.007812 150.382812 109.96875 150.59375 109.929688 150.769531 C 109.851562 151.121094 109.761719 151.316406 109.671875 151.316406 C 109.578125 151.316406 109.492188 151.121094 109.414062 150.769531 C 109.371094 150.59375 109.335938 150.378906 109.300781 150.132812 L 109.246094 149.734375 L 109.222656 149.515625 L 109.214844 149.40625 C 109.207031 149.375 109.207031 149.285156 109.203125 149.226562 L 109.1875 148.8125 L 109.183594 148.589844 L 109.179688 148.476562 C 109.171875 148.453125 109.195312 148.453125 109.210938 148.445312 L 109.261719 148.429688 L 109.6875 148.296875 L 109.921875 148.234375 L 110.132812 148.179688 C 110.503906 148.082031 110.902344 147.996094 111.324219 147.925781 C 112.164062 147.78125 113.097656 147.691406 114.082031 147.683594 C 115.0625 147.671875 115.996094 147.742188 116.835938 147.859375 C 117.257812 147.917969 117.65625 147.992188 118.023438 148.070312 C 118.207031 148.109375 118.382812 148.148438 118.554688 148.191406 L 119.191406 148.355469 L 119.554688 148.449219 C 119.609375 148.46875 119.683594 148.46875 119.710938 148.503906 L 119.699219 148.691406 L 119.648438 149.34375 C 119.644531 149.398438 119.640625 149.425781 119.636719 149.453125 L 119.621094 149.542969 L 119.59375 149.710938 C 119.574219 149.816406 119.554688 149.914062 119.535156 150 C 119.457031 150.351562 119.367188 150.542969 119.277344 150.542969 Z M 119.277344 150.542969 " fill-opacity="1" fill-rule="evenodd"/><path fill="#ffffff" d="M 127.96875 202.789062 C 127.601562 202.789062 127.304688 193.773438 127.304688 182.652344 C 127.304688 171.53125 127.601562 162.515625 127.96875 162.515625 C 128.335938 162.515625 128.636719 171.53125 128.636719 182.652344 C 128.636719 193.773438 128.335938 202.789062 127.96875 202.789062 Z M 127.96875 202.789062 " fill-opacity="1" fill-rule="evenodd"/><path fill="#ffffff" d="M 167.246094 160.800781 C 167.261719 161.167969 153.195312 162.074219 135.832031 162.824219 L 127.484375 163.160156 L 122.636719 162.761719 L 118.230469 162.382812 C 115.445312 162.136719 112.980469 161.90625 110.929688 161.695312 C 106.828125 161.277344 104.394531 160.957031 104.402344 160.800781 C 104.414062 160.648438 106.871094 160.691406 110.988281 160.882812 C 113.046875 160.980469 115.519531 161.113281 118.3125 161.28125 L 122.726562 161.554688 L 127.503906 161.871094 L 135.773438 161.492188 C 153.140625 160.742188 167.230469 160.433594 167.246094 160.800781 Z M 167.246094 160.800781 " fill-opacity="1" fill-rule="evenodd"/><path fill="#ffffff" d="M 272.417969 162.515625 C 272.40625 162.882812 265.765625 162.988281 257.582031 162.753906 C 249.398438 162.515625 242.773438 162.027344 242.785156 161.660156 C 242.796875 161.292969 249.4375 161.183594 257.621094 161.421875 C 265.800781 161.660156 272.425781 162.148438 272.417969 162.515625 Z M 272.417969 162.515625 " fill-opacity="1" fill-rule="evenodd"/><path fill="#ffffff" d="M 230.0625 149.832031 C 230.0625 150.199219 218.738281 150.585938 204.765625 150.699219 C 190.792969 150.808594 179.464844 150.601562 179.460938 150.234375 C 179.457031 149.867188 190.78125 149.476562 204.753906 149.367188 C 218.730469 149.253906 230.058594 149.464844 230.0625 149.832031 Z M 230.0625 149.832031 " fill-opacity="1" fill-rule="evenodd"/><path fill="#ffffff" d="M 224.109375 142.023438 C 224.109375 142.390625 215.039062 142.78125 203.84375 142.890625 C 192.648438 143.003906 183.570312 142.796875 183.566406 142.425781 C 183.5625 142.058594 192.632812 141.671875 203.832031 141.558594 C 215.027344 141.449219 224.105469 141.65625 224.109375 142.023438 Z M 224.109375 142.023438 " fill-opacity="1" fill-rule="evenodd"/><g fill="#ffffff" fill-opacity="1"><g transform="translate(93.827346, 225.3805)"><g><path d="M 19.734375 0 L 13.421875 0 L 6.03125 -8.515625 L 6.03125 0 L 1.453125 0 L 1.453125 -20.078125 L 6.03125 -20.078125 L 6.03125 -11.875 L 12.921875 -20.078125 L 18.46875 -20.078125 L 10.390625 -10.5625 Z M 19.734375 0 "/></g></g></g><g fill="#ffffff" fill-opacity="1"><g transform="translate(112.973885, 225.3805)"><g><path d="M 2.640625 -1.484375 C 1.253906 -2.710938 0.5625 -4.289062 0.5625 -6.21875 C 0.5625 -8.15625 1.28125 -9.742188 2.71875 -10.984375 C 4.164062 -12.222656 5.953125 -12.84375 8.078125 -12.84375 C 10.171875 -12.84375 11.929688 -12.21875 13.359375 -10.96875 C 14.796875 -9.71875 15.515625 -8.132812 15.515625 -6.21875 C 15.515625 -4.3125 14.8125 -2.738281 13.40625 -1.5 C 12.007812 -0.257812 10.234375 0.359375 8.078125 0.359375 C 5.835938 0.359375 4.023438 -0.253906 2.640625 -1.484375 Z M 5.96875 -8.34375 C 5.414062 -7.789062 5.140625 -7.082031 5.140625 -6.21875 C 5.140625 -5.363281 5.40625 -4.664062 5.9375 -4.125 C 6.46875 -3.582031 7.171875 -3.3125 8.046875 -3.3125 C 8.890625 -3.3125 9.582031 -3.585938 10.125 -4.140625 C 10.675781 -4.691406 10.953125 -5.390625 10.953125 -6.234375 C 10.953125 -7.085938 10.671875 -7.789062 10.109375 -8.34375 C 9.546875 -8.894531 8.859375 -9.171875 8.046875 -9.171875 C 7.222656 -9.171875 6.53125 -8.894531 5.96875 -8.34375 Z M 5.96875 -8.34375 "/></g></g></g><g fill="#ffffff" fill-opacity="1"><g transform="translate(129.055026, 225.3805)"><g><path d="M 1.453125 -20.078125 L 8.78125 -20.078125 C 10.820312 -20.078125 12.472656 -19.546875 13.734375 -18.484375 C 15.003906 -17.429688 15.640625 -15.898438 15.640625 -13.890625 C 15.640625 -11.878906 15 -10.300781 13.71875 -9.15625 C 12.4375 -8.007812 10.789062 -7.4375 8.78125 -7.4375 L 6.03125 -7.4375 L 6.03125 0 L 1.453125 0 Z M 6.03125 -11.09375 L 7.328125 -11.09375 C 8.347656 -11.09375 9.1875 -11.296875 9.84375 -11.703125 C 10.5 -12.117188 10.828125 -12.800781 10.828125 -13.75 C 10.828125 -14.707031 10.5 -15.390625 9.84375 -15.796875 C 9.1875 -16.210938 8.347656 -16.421875 7.328125 -16.421875 L 6.03125 -16.421875 Z M 6.03125 -11.09375 "/></g></g></g><g fill="#ffffff" fill-opacity="1"><g transform="translate(145.257813, 225.3805)"><g><path d="M 14.09375 -5.640625 L 5.03125 -5.640625 C 5.03125 -4.765625 5.3125 -4.113281 5.875 -3.6875 C 6.445312 -3.269531 7.066406 -3.0625 7.734375 -3.0625 C 8.429688 -3.0625 8.984375 -3.15625 9.390625 -3.34375 C 9.796875 -3.53125 10.257812 -3.898438 10.78125 -4.453125 L 13.890625 -2.890625 C 12.585938 -0.722656 10.429688 0.359375 7.421875 0.359375 C 5.535156 0.359375 3.921875 -0.28125 2.578125 -1.5625 C 1.234375 -2.851562 0.5625 -4.40625 0.5625 -6.21875 C 0.5625 -8.039062 1.234375 -9.597656 2.578125 -10.890625 C 3.921875 -12.191406 5.535156 -12.84375 7.421875 -12.84375 C 9.398438 -12.84375 11.007812 -12.269531 12.25 -11.125 C 13.488281 -9.988281 14.109375 -8.359375 14.109375 -6.234375 C 14.109375 -5.941406 14.101562 -5.742188 14.09375 -5.640625 Z M 5.15625 -8.03125 L 9.90625 -8.03125 C 9.800781 -8.675781 9.539062 -9.171875 9.125 -9.515625 C 8.71875 -9.867188 8.191406 -10.046875 7.546875 -10.046875 C 6.828125 -10.046875 6.253906 -9.859375 5.828125 -9.484375 C 5.410156 -9.109375 5.1875 -8.625 5.15625 -8.03125 Z M 5.15625 -8.03125 "/></g></g></g><g fill="#ffffff" fill-opacity="1"><g transform="translate(159.927904, 225.3805)"><g><path d="M 1.453125 -20.078125 L 8.640625 -20.078125 C 10.566406 -20.078125 12.140625 -19.5625 13.359375 -18.53125 C 14.578125 -17.5 15.1875 -16.023438 15.1875 -14.109375 C 15.1875 -12.628906 14.816406 -11.390625 14.078125 -10.390625 C 13.335938 -9.398438 12.332031 -8.703125 11.0625 -8.296875 L 17.984375 0 L 12.171875 0 L 6.03125 -7.9375 L 6.03125 0 L 1.453125 0 Z M 6.03125 -11.171875 L 6.5625 -11.171875 C 6.988281 -11.171875 7.347656 -11.175781 7.640625 -11.1875 C 7.929688 -11.207031 8.265625 -11.265625 8.640625 -11.359375 C 9.015625 -11.453125 9.3125 -11.585938 9.53125 -11.765625 C 9.757812 -11.953125 9.953125 -12.210938 10.109375 -12.546875 C 10.273438 -12.890625 10.359375 -13.304688 10.359375 -13.796875 C 10.359375 -14.285156 10.273438 -14.695312 10.109375 -15.03125 C 9.953125 -15.375 9.757812 -15.632812 9.53125 -15.8125 C 9.3125 -15.988281 9.015625 -16.125 8.640625 -16.21875 C 8.265625 -16.320312 7.929688 -16.378906 7.640625 -16.390625 C 7.347656 -16.410156 6.988281 -16.421875 6.5625 -16.421875 L 6.03125 -16.421875 Z M 6.03125 -11.171875 "/></g></g></g><g fill="#ffffff" fill-opacity="1"><g transform="translate(177.347115, 225.3805)"><g><path d="M 2.640625 -1.484375 C 1.253906 -2.710938 0.5625 -4.289062 0.5625 -6.21875 C 0.5625 -8.15625 1.28125 -9.742188 2.71875 -10.984375 C 4.164062 -12.222656 5.953125 -12.84375 8.078125 -12.84375 C 10.171875 -12.84375 11.929688 -12.21875 13.359375 -10.96875 C 14.796875 -9.71875 15.515625 -8.132812 15.515625 -6.21875 C 15.515625 -4.3125 14.8125 -2.738281 13.40625 -1.5 C 12.007812 -0.257812 10.234375 0.359375 8.078125 0.359375 C 5.835938 0.359375 4.023438 -0.253906 2.640625 -1.484375 Z M 5.96875 -8.34375 C 5.414062 -7.789062 5.140625 -7.082031 5.140625 -6.21875 C 5.140625 -5.363281 5.40625 -4.664062 5.9375 -4.125 C 6.46875 -3.582031 7.171875 -3.3125 8.046875 -3.3125 C 8.890625 -3.3125 9.582031 -3.585938 10.125 -4.140625 C 10.675781 -4.691406 10.953125 -5.390625 10.953125 -6.234375 C 10.953125 -7.085938 10.671875 -7.789062 10.109375 -8.34375 C 9.546875 -8.894531 8.859375 -9.171875 8.046875 -9.171875 C 7.222656 -9.171875 6.53125 -8.894531 5.96875 -8.34375 Z M 5.96875 -8.34375 "/></g></g></g><g fill="#ffffff" fill-opacity="1"><g transform="translate(193.428256, 225.3805)"><g/></g></g><g fill="#ffffff" fill-opacity="1"><g transform="translate(200.069941, 225.3805)"><g><path d="M 8.859375 -20.4375 C 9.941406 -20.4375 11 -20.273438 12.03125 -19.953125 C 13.070312 -19.640625 13.847656 -19.332031 14.359375 -19.03125 L 15.078125 -18.53125 L 13.234375 -14.890625 C 13.085938 -14.984375 12.882812 -15.109375 12.625 -15.265625 C 12.363281 -15.421875 11.875 -15.628906 11.15625 -15.890625 C 10.445312 -16.148438 9.785156 -16.28125 9.171875 -16.28125 C 8.410156 -16.28125 7.820312 -16.113281 7.40625 -15.78125 C 6.988281 -15.457031 6.78125 -15.019531 6.78125 -14.46875 C 6.78125 -14.195312 6.878906 -13.941406 7.078125 -13.703125 C 7.273438 -13.472656 7.609375 -13.222656 8.078125 -12.953125 C 8.546875 -12.679688 8.957031 -12.460938 9.3125 -12.296875 C 9.675781 -12.140625 10.226562 -11.898438 10.96875 -11.578125 C 12.269531 -11.023438 13.378906 -10.273438 14.296875 -9.328125 C 15.210938 -8.378906 15.671875 -7.304688 15.671875 -6.109375 C 15.671875 -4.953125 15.460938 -3.941406 15.046875 -3.078125 C 14.628906 -2.222656 14.0625 -1.550781 13.34375 -1.0625 C 12.625 -0.582031 11.828125 -0.226562 10.953125 0 C 10.078125 0.238281 9.125 0.359375 8.09375 0.359375 C 7.21875 0.359375 6.359375 0.269531 5.515625 0.09375 C 4.671875 -0.0820312 3.960938 -0.300781 3.390625 -0.5625 C 2.828125 -0.832031 2.316406 -1.097656 1.859375 -1.359375 C 1.410156 -1.617188 1.082031 -1.835938 0.875 -2.015625 L 0.5625 -2.28125 L 2.84375 -6.125 C 3.039062 -5.96875 3.304688 -5.765625 3.640625 -5.515625 C 3.984375 -5.265625 4.585938 -4.925781 5.453125 -4.5 C 6.328125 -4.082031 7.097656 -3.875 7.765625 -3.875 C 9.691406 -3.875 10.65625 -4.53125 10.65625 -5.84375 C 10.65625 -6.113281 10.582031 -6.363281 10.4375 -6.59375 C 10.300781 -6.832031 10.0625 -7.066406 9.71875 -7.296875 C 9.375 -7.535156 9.066406 -7.722656 8.796875 -7.859375 C 8.523438 -8.003906 8.082031 -8.21875 7.46875 -8.5 C 6.863281 -8.78125 6.414062 -8.992188 6.125 -9.140625 C 4.914062 -9.742188 3.976562 -10.492188 3.3125 -11.390625 C 2.644531 -12.296875 2.3125 -13.269531 2.3125 -14.3125 C 2.3125 -16.101562 2.972656 -17.570312 4.296875 -18.71875 C 5.628906 -19.863281 7.148438 -20.4375 8.859375 -20.4375 Z M 8.859375 -20.4375 "/></g></g></g><g fill="#ffffff" fill-opacity="1"><g transform="translate(216.418695, 225.3805)"><g><path d="M 2.1875 -12.484375 L 2.1875 -17.125 L 6.5 -17.125 L 6.5 -12.484375 L 9.125 -12.484375 L 9.125 -9.203125 L 6.5 -9.203125 L 6.5 -5.234375 C 6.5 -4.078125 6.820312 -3.5 7.46875 -3.5 C 7.632812 -3.5 7.804688 -3.53125 7.984375 -3.59375 C 8.160156 -3.664062 8.296875 -3.734375 8.390625 -3.796875 L 8.546875 -3.890625 L 9.609375 -0.40625 C 8.679688 0.101562 7.628906 0.359375 6.453125 0.359375 C 5.640625 0.359375 4.941406 0.21875 4.359375 -0.0625 C 3.773438 -0.34375 3.332031 -0.722656 3.03125 -1.203125 C 2.726562 -1.679688 2.507812 -2.179688 2.375 -2.703125 C 2.25 -3.234375 2.1875 -3.800781 2.1875 -4.40625 L 2.1875 -9.203125 L 0.390625 -9.203125 L 0.390625 -12.484375 Z M 2.1875 -12.484375 "/></g></g></g><g fill="#ffffff" fill-opacity="1"><g transform="translate(226.028461, 225.3805)"><g><path d="M 5.515625 -12.484375 L 5.515625 -6.546875 C 5.515625 -5.316406 5.703125 -4.441406 6.078125 -3.921875 C 6.453125 -3.398438 7.082031 -3.140625 7.96875 -3.140625 C 8.863281 -3.140625 9.5 -3.398438 9.875 -3.921875 C 10.25 -4.441406 10.4375 -5.316406 10.4375 -6.546875 L 10.4375 -12.484375 L 14.75 -12.484375 L 14.75 -5.5 C 14.75 -3.425781 14.207031 -1.929688 13.125 -1.015625 C 12.039062 -0.0976562 10.320312 0.359375 7.96875 0.359375 C 5.625 0.359375 3.910156 -0.0976562 2.828125 -1.015625 C 1.753906 -1.929688 1.21875 -3.425781 1.21875 -5.5 L 1.21875 -12.484375 Z M 5.515625 -12.484375 "/></g></g></g><g fill="#ffffff" fill-opacity="1"><g transform="translate(241.987957, 225.3805)"><g><path d="M 2.3125 -1.546875 C 1.144531 -2.816406 0.5625 -4.375 0.5625 -6.21875 C 0.5625 -8.070312 1.144531 -9.640625 2.3125 -10.921875 C 3.476562 -12.203125 4.960938 -12.84375 6.765625 -12.84375 C 8.421875 -12.84375 9.78125 -12.320312 10.84375 -11.28125 L 10.84375 -20.921875 L 15.15625 -20.921875 L 15.15625 0 L 10.90625 0 L 10.90625 -1.40625 L 10.84375 -1.40625 C 9.78125 -0.226562 8.421875 0.359375 6.765625 0.359375 C 4.960938 0.359375 3.476562 -0.273438 2.3125 -1.546875 Z M 5.96875 -8.34375 C 5.414062 -7.789062 5.140625 -7.082031 5.140625 -6.21875 C 5.140625 -5.363281 5.40625 -4.664062 5.9375 -4.125 C 6.46875 -3.582031 7.171875 -3.3125 8.046875 -3.3125 C 8.890625 -3.3125 9.582031 -3.585938 10.125 -4.140625 C 10.675781 -4.691406 10.953125 -5.390625 10.953125 -6.234375 C 10.953125 -7.085938 10.671875 -7.789062 10.109375 -8.34375 C 9.546875 -8.894531 8.859375 -9.171875 8.046875 -9.171875 C 7.222656 -9.171875 6.53125 -8.894531 5.96875 -8.34375 Z M 5.96875 -8.34375 "/></g></g></g><g fill="#ffffff" fill-opacity="1"><g transform="translate(258.604323, 225.3805)"><g><path d="M 1.875 -19.4375 C 2.375 -19.9375 2.972656 -20.1875 3.671875 -20.1875 C 4.367188 -20.1875 4.96875 -19.9375 5.46875 -19.4375 C 5.976562 -18.9375 6.234375 -18.335938 6.234375 -17.640625 C 6.234375 -16.941406 5.976562 -16.335938 5.46875 -15.828125 C 4.96875 -15.328125 4.367188 -15.078125 3.671875 -15.078125 C 2.972656 -15.078125 2.375 -15.328125 1.875 -15.828125 C 1.375 -16.335938 1.125 -16.941406 1.125 -17.640625 C 1.125 -18.335938 1.375 -18.9375 1.875 -19.4375 Z M 1.453125 -12.484375 L 1.453125 0 L 5.765625 0 L 5.765625 -12.484375 Z M 1.453125 -12.484375 "/></g></g></g><g fill="#ffffff" fill-opacity="1"><g transform="translate(265.95153, 225.3805)"><g><path d="M 2.640625 -1.484375 C 1.253906 -2.710938 0.5625 -4.289062 0.5625 -6.21875 C 0.5625 -8.15625 1.28125 -9.742188 2.71875 -10.984375 C 4.164062 -12.222656 5.953125 -12.84375 8.078125 -12.84375 C 10.171875 -12.84375 11.929688 -12.21875 13.359375 -10.96875 C 14.796875 -9.71875 15.515625 -8.132812 15.515625 -6.21875 C 15.515625 -4.3125 14.8125 -2.738281 13.40625 -1.5 C 12.007812 -0.257812 10.234375 0.359375 8.078125 0.359375 C 5.835938 0.359375 4.023438 -0.253906 2.640625 -1.484375 Z M 5.96875 -8.34375 C 5.414062 -7.789062 5.140625 -7.082031 5.140625 -6.21875 C 5.140625 -5.363281 5.40625 -4.664062 5.9375 -4.125 C 6.46875 -3.582031 7.171875 -3.3125 8.046875 -3.3125 C 8.890625 -3.3125 9.582031 -3.585938 10.125 -4.140625 C 10.675781 -4.691406 10.953125 -5.390625 10.953125 -6.234375 C 10.953125 -7.085938 10.671875 -7.789062 10.109375 -8.34375 C 9.546875 -8.894531 8.859375 -9.171875 8.046875 -9.171875 C 7.222656 -9.171875 6.53125 -8.894531 5.96875 -8.34375 Z M 5.96875 -8.34375 "/></g></g></g><g fill="#ffffff" fill-opacity="1"><g transform="translate(282.032671, 225.3805)"><g><path d="M 6.890625 -12.84375 C 7.597656 -12.84375 8.300781 -12.757812 9 -12.59375 C 9.695312 -12.4375 10.21875 -12.273438 10.5625 -12.109375 L 11.0625 -11.875 L 9.65625 -9.046875 C 8.6875 -9.566406 7.765625 -9.828125 6.890625 -9.828125 C 6.398438 -9.828125 6.050781 -9.773438 5.84375 -9.671875 C 5.644531 -9.566406 5.546875 -9.367188 5.546875 -9.078125 C 5.546875 -9.015625 5.550781 -8.945312 5.5625 -8.875 C 5.582031 -8.8125 5.613281 -8.75 5.65625 -8.6875 C 5.707031 -8.632812 5.753906 -8.585938 5.796875 -8.546875 C 5.835938 -8.503906 5.90625 -8.457031 6 -8.40625 C 6.101562 -8.363281 6.179688 -8.328125 6.234375 -8.296875 C 6.296875 -8.273438 6.390625 -8.238281 6.515625 -8.1875 C 6.648438 -8.144531 6.75 -8.109375 6.8125 -8.078125 C 6.875 -8.054688 6.984375 -8.019531 7.140625 -7.96875 C 7.296875 -7.925781 7.414062 -7.894531 7.5 -7.875 C 8 -7.726562 8.429688 -7.566406 8.796875 -7.390625 C 9.171875 -7.210938 9.566406 -6.96875 9.984375 -6.65625 C 10.398438 -6.351562 10.71875 -5.96875 10.9375 -5.5 C 11.164062 -5.03125 11.28125 -4.492188 11.28125 -3.890625 C 11.28125 -1.054688 9.3125 0.359375 5.375 0.359375 C 4.476562 0.359375 3.628906 0.222656 2.828125 -0.046875 C 2.023438 -0.328125 1.445312 -0.601562 1.09375 -0.875 L 0.5625 -1.3125 L 2.3125 -4.25 C 2.4375 -4.144531 2.601562 -4.015625 2.8125 -3.859375 C 3.03125 -3.703125 3.414062 -3.488281 3.96875 -3.21875 C 4.519531 -2.957031 5 -2.828125 5.40625 -2.828125 C 6.289062 -2.828125 6.734375 -3.125 6.734375 -3.71875 C 6.734375 -4 6.617188 -4.210938 6.390625 -4.359375 C 6.171875 -4.515625 5.785156 -4.691406 5.234375 -4.890625 C 4.691406 -5.085938 4.269531 -5.265625 3.96875 -5.421875 C 3.1875 -5.828125 2.566406 -6.285156 2.109375 -6.796875 C 1.660156 -7.304688 1.4375 -7.984375 1.4375 -8.828125 C 1.4375 -10.097656 1.925781 -11.082031 2.90625 -11.78125 C 3.882812 -12.488281 5.210938 -12.84375 6.890625 -12.84375 Z M 6.890625 -12.84375 "/></g></g></g></svg>